ModelForces
version=1
nRows=4
nColumns=157
inDegrees=no

This file contains the forces exerted on a model during a simulation.

A force is a generalized force, meaning that it can be either a force (N) or a torque (Nm).

Units are S.I. units (second, meters, Newtons, ...)
Angles are in degrees.

endheader
time	glut_med1_r	glut_med2_r	glut_med3_r	glut_min1_r	glut_min2_r	glut_min3_r	semimem_r	semiten_r	bifemlh_r	bifemsh_r	sar_r	add_long_r	add_brev_r	add_mag1_r	add_mag2_r	add_mag3_r	tfl_r	pect_r	grac_r	glut_max1_r	glut_max2_r	glut_max3_r	iliacus_r	psoas_r	quad_fem_r	gem_r	peri_r	rect_fem_r	vas_med_r	vas_int_r	vas_lat_r	med_gas_r	lat_gas_r	soleus_r	tib_post_r	flex_dig_r	flex_hal_r	tib_ant_r	per_brev_r	per_long_r	per_tert_r	ext_dig_r	ext_hal_r	glut_med1_l	glut_med2_l	glut_med3_l	glut_min1_l	glut_min2_l	glut_min3_l	semimem_l	semiten_l	bifemlh_l	bifemsh_l	sar_l	add_long_l	add_brev_l	add_mag1_l	add_mag2_l	add_mag3_l	tfl_l	pect_l	grac_l	glut_max1_l	glut_max2_l	glut_max3_l	iliacus_l	psoas_l	quad_fem_l	gem_l	peri_l	rect_fem_l	vas_med_l	vas_int_l	vas_lat_l	med_gas_l	lat_gas_l	soleus_l	tib_post_l	flex_dig_l	flex_hal_l	tib_ant_l	per_brev_l	per_long_l	per_tert_l	ext_dig_l	ext_hal_l	ercspn_r	ercspn_l	intobl_r	intobl_l	extobl_r	extobl_l	femur_lat_meniscii_r.femur_lat_r.force.X	femur_lat_meniscii_r.femur_lat_r.force.Y	femur_lat_meniscii_r.femur_lat_r.force.Z	femur_lat_meniscii_r.femur_lat_r.torque.X	femur_lat_meniscii_r.femur_lat_r.torque.Y	femur_lat_meniscii_r.femur_lat_r.torque.Z	femur_lat_meniscii_r.meniscus_lat_r.force.X	femur_lat_meniscii_r.meniscus_lat_r.force.Y	femur_lat_meniscii_r.meniscus_lat_r.force.Z	femur_lat_meniscii_r.meniscus_lat_r.torque.X	femur_lat_meniscii_r.meniscus_lat_r.torque.Y	femur_lat_meniscii_r.meniscus_lat_r.torque.Z	femur_med_meniscii_r.femur_med_r.force.X	femur_med_meniscii_r.femur_med_r.force.Y	femur_med_meniscii_r.femur_med_r.force.Z	femur_med_meniscii_r.femur_med_r.torque.X	femur_med_meniscii_r.femur_med_r.torque.Y	femur_med_meniscii_r.femur_med_r.torque.Z	femur_med_meniscii_r.meniscus_med_r.force.X	femur_med_meniscii_r.meniscus_med_r.force.Y	femur_med_meniscii_r.meniscus_med_r.force.Z	femur_med_meniscii_r.meniscus_med_r.torque.X	femur_med_meniscii_r.meniscus_med_r.torque.Y	femur_med_meniscii_r.meniscus_med_r.torque.Z	femur_med_tibia_r.tibia_upper_r.force.X	femur_med_tibia_r.tibia_upper_r.force.Y	femur_med_tibia_r.tibia_upper_r.force.Z	femur_med_tibia_r.tibia_upper_r.torque.X	femur_med_tibia_r.tibia_upper_r.torque.Y	femur_med_tibia_r.tibia_upper_r.torque.Z	femur_med_tibia_r.femur_med_r.force.X	femur_med_tibia_r.femur_med_r.force.Y	femur_med_tibia_r.femur_med_r.force.Z	femur_med_tibia_r.femur_med_r.torque.X	femur_med_tibia_r.femur_med_r.torque.Y	femur_med_tibia_r.femur_med_r.torque.Z	femur_lat_tibia_r.tibia_upper_r.force.X	femur_lat_tibia_r.tibia_upper_r.force.Y	femur_lat_tibia_r.tibia_upper_r.force.Z	femur_lat_tibia_r.tibia_upper_r.torque.X	femur_lat_tibia_r.tibia_upper_r.torque.Y	femur_lat_tibia_r.tibia_upper_r.torque.Z	femur_lat_tibia_r.femur_lat_r.force.X	femur_lat_tibia_r.femur_lat_r.force.Y	femur_lat_tibia_r.femur_lat_r.force.Z	femur_lat_tibia_r.femur_lat_r.torque.X	femur_lat_tibia_r.femur_lat_r.torque.Y	femur_lat_tibia_r.femur_lat_r.torque.Z	aACL_R	pACL_R	aPCL_R	pPCL_R	aMCL_R	mMCL_R	pMCL_R	aLCL_R	mLCL_R	pLCL_R	ground_prescribedForce_fx	ground_prescribedForce_fy	ground_prescribedForce_fz	ground_prescribedForce_px	ground_prescribedForce_py	ground_prescribedForce_pz
      0.08995478	     18.21074163	     12.91778427	     13.96043430	      5.86584080	      6.69401576	      7.68967957	      2.38303086	      7.68164673	      9.75488769	     12.53734378	      3.36074852	     12.91584945	      9.06957383	      6.63224037	      5.67852961	      9.81219821	      5.83310024	      4.96640488	      3.21021169	      8.36338378	     12.73185540	      9.62170964	     36.06562178	     28.22724095	      8.13666041	      5.06720930	     11.27429563	     60.72470937	     37.42660301	     40.46461447	     54.54929943	      2.65585084	      0.94728824	     13.31379910	      9.98005452	     10.22695034	     11.08942685	     28.88114345	     15.77968525	     35.05831146	      8.62012202	      8.82749412	      1.30705031	     18.21074163	     12.91778427	     13.96043430	      5.86584080	      6.69401576	      7.68967957	     23.16734809	      9.79337280	     20.02245058	     16.20472056	      3.34051555	     12.91584945	      9.06957383	      6.63224037	      5.67852961	      9.81219821	      7.71143705	      4.96640488	      3.47297686	      8.36338378	     12.73185540	      9.62170964	     36.06562178	     28.22724095	      8.13666041	      5.06720930	     11.27429563	     27.60586307	     15.39316249	     17.88461735	     19.22459738	     40.10908802	     18.66767881	     85.90060427	     66.19384216	      8.75636028	      8.65743252	     21.44359035	     11.63041641	     28.17635092	      4.35820538	     14.53908697	      4.55909361	     55.26278673	     55.26278673	     21.16047943	     21.16047943	     37.89233033	     37.89233033	    157.05576699	     44.05942003	    -10.28395980	      3.15002212	      3.86892311	     64.04716758	   -157.05576699	    -44.05942003	     10.28395980	      1.06550993	     -4.45523992	     -2.17986618	    107.70597815	      1.72444606	     -3.96593848	      1.65252153	     -2.19075078	     43.69207630	   -107.70597815	     -1.72444606	      3.96593848	     -0.10558167	      1.72148546	     -1.88470861	   -556.41819054	   -242.42294915	     68.80341578	     -4.45498149	      8.53926636	     -5.90117045	    556.41819054	    242.42294915	    -68.80341578	     32.38837604	     -9.91195678	    226.96399154	   -101.24993439	    -62.17258120	    -35.75837346	      2.55801388	     -3.76349185	     -0.70033745	    101.24993439	     62.17258120	     35.75837346	    -16.10488768	      2.46293182	     41.31961392	      0.00000000	      0.00000000	    682.55828443	    283.62716381	     23.99341121	      4.81624934	      0.00000000	      0.00000000	      0.00000000	      0.00000000	    -55.00000000	     95.26270000	      0.00000000	      0.03000000	     -0.03000000	      0.00000000
      0.09102545	     18.05713720	     12.81344299	     13.84657443	      5.82009874	      6.64344743	      7.62488517	      2.39114377	      7.70259131	      9.68877360	     12.55573777	      3.36062749	     12.81055159	      8.99946321	      6.57872840	      5.63186925	      9.72859793	      5.79578965	      4.92739764	      3.21530358	      8.29530376	     12.62811264	      9.54253439	     35.86946344	     28.00478956	      8.07199094	      5.03468034	     11.17767591	     60.61884715	     37.38447702	     40.28711763	     54.20763474	      2.61665346	      0.95153662	     13.20674038	      9.94395200	     10.20289125	     11.03672181	     28.79091450	     15.52621307	     34.61271276	      8.58500815	      8.55607494	      1.29062653	     18.05713720	     12.81344299	     13.84657443	      5.82009874	      6.64344743	      7.62488517	     22.96929976	      9.71101215	     19.85012711	     16.07572095	      3.31457942	     12.81055159	      8.99946321	      6.57872840	      5.63186925	      9.72859793	      7.65971248	      4.92739764	      3.44558306	      8.29530376	     12.62811264	      9.54253439	     35.86946344	     28.00478956	      8.07199094	      5.03468034	     11.17767591	     27.36808036	     15.26506815	     17.73449621	     19.06263720	     39.77089573	     18.50961625	     85.16236157	     65.85724047	      8.67232614	      8.57490952	     21.25931953	     11.52941957	     27.95658043	      4.32393231	     14.41703318	      4.52066707	     54.83099292	     54.83099292	     20.98495550	     20.98495550	     37.72940092	     37.72940092	    155.20354984	     43.25541351	    -11.42830369	      3.63737862	      3.81795871	     63.30814195	   -155.20354984	    -43.25541351	     11.42830369	      1.01912301	     -4.37389470	     -2.17410489	    105.81571001	      0.72811708	     -4.49676854	      1.85122685	     -2.15203297	     42.93630992	   -105.81571001	     -0.72811708	      4.49676854	     -0.10348038	      1.70126231	     -1.88220225	   -542.86345494	   -237.30059813	     67.49994899	     -4.34778703	      8.30013647	     -5.73167253	    542.86345494	    237.30059813	    -67.49994899	     31.75659272	     -9.64531675	    221.43593721	   -107.58440282	    -66.20592835	    -37.80930234	      2.71931183	     -3.99838035	     -0.73827019	    107.58440282	     66.20592835	     37.80930234	    -17.03950933	      2.61729400	     43.90399661	      0.00000000	      0.00000000	    681.15032981	    283.04456373	     24.46806221	      5.16407785	      0.00000000	      0.00000000	      0.00000000	      0.00000000	    -55.00000000	     95.26270000	      0.00000000	      0.03000000	     -0.03000000	      0.00000000
      0.09264733	     17.82875733	     12.65833299	     13.67732038	      5.75208917	      6.56827716	      7.52855184	      2.40626571	      7.74050802	      9.59508348	     12.59260345	      3.35935703	     12.65402411	      8.89521637	      6.49918335	      5.56251228	      9.60427249	      5.74948567	      4.86940496	      3.22589758	      8.19411154	     12.47390953	      9.42484421	     35.57798964	     27.67413454	      7.97585035	      4.98634087	     11.03372765	     60.44984351	     37.25443185	     39.97001860	     53.64307759	      2.56920805	      0.96421254	     13.05154477	      9.95194364	     10.17555787	     10.95866922	     28.65343749	     15.09853151	     33.87932563	      8.51887665	      8.15917787	      1.27009319	     17.82875733	     12.65833299	     13.67732038	      5.75208917	      6.56827716	      7.52855184	     22.67433265	      9.58856804	     19.59362966	     15.88394868	      3.27601626	     12.65402411	      8.89521637	      6.49918335	      5.56251228	      9.60427249	      7.58274042	      4.86940496	      3.40485659	      8.19411154	     12.47390953	      9.42484421	     35.57798964	     27.67413454	      7.97585035	      4.98634087	     11.03372765	     27.01421602	     15.07468731	     17.51135572	     18.82192064	     39.26659984	     18.27394477	     84.06250402	     65.35597849	      8.54749998	      8.45242371	     20.98518258	     11.37906546	     27.62980393	      4.27299334	     14.23469679	      4.46326258	     54.18900637	     54.18900637	     20.72402946	     20.72402946	     37.48734642	     37.48734642	    159.22653409	     44.61555834	    -13.16928556	      4.31810546	      3.91005455	     64.95875057	   -159.22653409	    -44.61555834	     13.16928556	      1.02282759	     -4.45549873	     -2.23074926	    111.31213474	      0.88688318	     -5.15461499	      2.12396923	     -2.26804960	     45.16448594	   -111.31213474	     -0.88688318	      5.15461499	     -0.12011473	      1.79847159	     -1.97273205	   -536.14570322	   -234.62228753	     68.81858397	     -4.32719141	      8.21418317	     -5.64799017	    536.14570322	    234.62228753	    -68.81858397	     32.24495564	     -9.51760071	    218.70350054	   -116.31411093	    -71.75528092	    -40.39948052	      2.93587901	     -4.31535394	     -0.78997146	    116.31411093	     71.75528092	     40.39948052	    -18.22973220	      2.82722308	     47.46562571	      0.00000000	      0.00000000	    678.32256431	    280.05827716	     23.51385060	      3.95897446	      0.00000000	      0.00000000	      0.00000000	      0.00000000	    -55.00000000	     95.26270000	      0.00000000	      0.03000000	     -0.03000000	      0.00000000
      0.09378874	     17.67108470	     12.55126201	     13.56049025	      5.70513476	      6.51638973	      7.46204587	      2.41301002	      7.77116709	      9.52731943	     12.57909576	      3.35079478	     12.54597803	      8.82323833	      6.44427695	      5.51464066	      9.51841969	      5.71808433	      4.82936887	      3.22985105	      8.12426883	     12.36747688	      9.34361039	     35.37687875	     27.44591388	      7.90948161	      4.95298506	     10.93414539	     60.30085542	     37.09844171	     39.68822167	     53.19047231	      2.51354889	      0.96497243	     12.92127065	      9.99853832	     10.16021361	     10.90248768	     28.56808028	     14.76328947	     33.31857257	      8.47928534	      7.89456536	      1.25951572	     17.67108470	     12.55126201	     13.56049025	      5.70513476	      6.51638973	      7.46204587	     22.47034080	      9.50403992	     19.41634926	     15.75156565	      3.24939102	     12.54597803	      8.82323833	      6.44427695	      5.51464066	      9.51841969	      7.52955525	      4.82936887	      3.37674072	      8.12426883	     12.36747688	      9.34361039	     35.37687875	     27.44591388	      7.90948161	      4.95298506	     10.93414539	     26.76968541	     14.94329818	     17.35734288	     18.65579229	     38.91743047	     18.11078472	     83.30163836	     65.00939352	      8.46139813	      8.36800207	     20.79580881	     11.27513087	     27.40418227	      4.23783812	     14.10824208	      4.42345359	     53.74577855	     53.74577855	     20.54391649	     20.54391649	     37.32036479	     37.32036479	    155.34854313	     43.74964131	    -13.52778923	      4.48706137	      3.81281322	     63.37953787	   -155.34854313	    -43.74964131	     13.52778923	      0.98991183	     -4.33467887	     -2.17157860	    105.23715191	     -0.96993995	     -5.09816939	      2.06510561	     -2.13752258	     42.71723607	   -105.23715191	      0.96993995	      5.09816939	     -0.09279689	      1.69538279	     -1.92043520	   -520.01304728	   -228.33092745	     68.18691968	     -4.22580259	      7.97779046	     -5.45107389	    520.01304728	    228.33092745	    -68.18691968	     31.87358722	     -9.22549900	    212.12294521	   -120.08105712	    -74.01872506	    -41.55483494	      3.02830132	     -4.45589079	     -0.81595750	    120.08105712	     74.01872506	     41.55483494	    -18.75688903	      2.91893513	     49.00454832	      0.00000000	      0.00000000	    677.26555660	    280.63917702	     24.86923694	      5.19652128	      0.00000000	      0.00000000	      0.00000000	      0.00000000	    -55.00000000	     95.26270000	      0.00000000	      0.03000000	     -0.03000000	      0.00000000
